<svg width="20" height="20" viewBox="0 0 20 20" fill="none" xmlns="http://www.w3.org/2000/svg">
  <g clip-path="url(#clip0)">
    <path
      d="M15.105 11.8406C13.6873 11.8406 12.534 12.9939 12.534 14.4116C12.534 15.8294 13.6873 16.9827 15.105 16.9827C16.523 16.9827 17.676 15.8294 17.676 14.4116C17.676 12.9939 16.5227 11.8406 15.105 11.8406ZM15.105 15.6221C14.4375 15.6221 13.8945 15.0792 13.8945 14.4116C13.8945 13.7441 14.4375 13.2011 15.105 13.2011C15.7725 13.2011 16.3155 13.7441 16.3155 14.4116C16.3155 15.0792 15.7725 15.6221 15.105 15.6221Z"
      fill="white" stroke="white" stroke-width="0.1"/>
    <path
      d="M6.49172 11.8406C5.07399 11.8406 3.9207 12.9939 3.9207 14.4116C3.9207 15.8294 5.07399 16.9827 6.49172 16.9827C7.90945 16.9827 9.06273 15.8294 9.06273 14.4116C9.06273 12.9939 7.90945 11.8406 6.49172 11.8406ZM6.49172 15.6221C5.82418 15.6221 5.28121 15.0792 5.28121 14.4116C5.28121 13.7441 5.82418 13.2011 6.49172 13.2011C7.15907 13.2011 7.70223 13.7441 7.70223 14.4116C7.70223 15.0792 7.15926 15.6221 6.49172 15.6221Z"
      fill="white" stroke="white" stroke-width="0.1"/>
    <path
      d="M16.8474 4.65225L16.8474 4.65222C16.7318 4.42254 16.4966 4.27764 16.2395 4.27764H12.9202H12.8702V4.32764V5.58814V5.63814H12.9202H15.82L17.5223 9.02404L17.5448 9.06871L17.5895 9.04625L18.7159 8.47985L18.7606 8.45738L18.7382 8.41271L16.8474 4.65225Z"
      fill="white" stroke="white" stroke-width="0.1"/>
    <path
      d="M13.2645 13.8025V13.7525H13.2145H8.44556H8.39556V13.8025V15.063V15.113H8.44556H13.2145H13.2645V15.063V13.8025Z"
      fill="white" stroke="white" stroke-width="0.1"/>
    <path
      d="M4.60072 13.7525H2.41588C2.04014 13.7525 1.73564 14.057 1.73564 14.4327C1.73564 14.8085 2.04018 15.113 2.41588 15.113H4.60076C4.9765 15.113 5.281 14.8084 5.281 14.4327C5.281 14.057 4.97646 13.7525 4.60072 13.7525Z"
      fill="white" stroke="white" stroke-width="0.1"/>
    <path
      d="M18.6674 8.32223C18.5388 8.15617 18.3404 8.05913 18.1302 8.05913H13.6003V3.69737C13.6003 3.32163 13.2958 3.01714 12.9201 3.01714H2.41588C2.04014 3.01714 1.73564 3.32167 1.73564 3.69737C1.73564 4.07307 2.04018 4.37761 2.41588 4.37761H12.2398V8.73936C12.2398 9.11511 12.5444 9.4196 12.9201 9.4196H17.7971L18.6894 10.5691V13.7524H16.9957C16.6199 13.7524 16.3155 14.0569 16.3155 14.4326C16.3155 14.8083 16.62 15.1128 16.9957 15.1128H19.3696C19.7454 15.1128 20.0499 14.8083 20.0499 14.4326V10.336C20.0499 10.185 19.9996 10.0381 19.9071 9.91884L19.9071 9.91882L18.6674 8.32223ZM18.6674 8.32223L18.6279 8.35284M18.6674 8.32223L18.6674 8.32218L18.6279 8.35284M18.6279 8.35284C18.5088 8.19905 18.3249 8.10913 18.1302 8.10913H13.6003L18.6279 8.35284ZM13.5503 8.05913V3.69737C13.5503 3.34925 13.2682 3.06714 12.9201 3.06714H2.41588C2.06775 3.06714 1.78564 3.34929 1.78564 3.69737C1.78564 4.04546 2.06779 4.32761 2.41588 4.32761H12.2398L13.5503 8.05913Z"
      fill="white" stroke="white" stroke-width="0.1"/>
    <path
      d="M4.55871 10.5594H1.65953C1.28379 10.5594 0.979297 10.8639 0.979297 11.2396C0.979297 11.6153 1.28383 11.9198 1.65953 11.9198H4.55867C4.93441 11.9198 5.23891 11.6153 5.23891 11.2396C5.23895 10.8639 4.93441 10.5594 4.55871 10.5594Z"
      fill="white" stroke="white" stroke-width="0.1"/>
    <path
      d="M6.0084 8.08013H0.630234C0.254532 8.08013 -0.05 8.38466 -0.05 8.7604C-0.05 9.13614 0.254536 9.44063 0.630234 9.44063H6.0084C6.38414 9.44063 6.68863 9.1361 6.68863 8.7604C6.68863 8.38471 6.38414 8.08013 6.0084 8.08013Z"
      fill="white" stroke="white" stroke-width="0.1"/>
    <path
      d="M7.0377 5.60137H1.65953C1.28379 5.60137 0.979297 5.9059 0.979297 6.2816C0.979297 6.65734 1.28383 6.96184 1.65953 6.96184H7.0377C7.41344 6.96184 7.71793 6.6573 7.71793 6.2816C7.71797 5.9059 7.41343 5.60137 7.0377 5.60137Z"
      fill="white" stroke="white" stroke-width="0.1"/>
  </g>
  <defs>
    <clipPath id="clip0">
      <rect width="20" height="20" fill="white"/>
    </clipPath>
  </defs>
</svg>
